<?xml version="1.0" encoding="UTF-8"?>
<svg width="82px" height="59px" viewBox="0 0 82 59" version="1.1" xmlns="http://www.w3.org/2000/svg" xmlns:xlink="http://www.w3.org/1999/xlink">
    <title>Share</title>
    <g id="Page-1" stroke="none" stroke-width="1" fill="none" fill-rule="evenodd">
        <g id="4b_Menu" transform="translate(-62.000000, -1545.000000)" fill="#737880">
            <g id="Share" transform="translate(62.000000, 1545.000000)">
                <path d="M79.25,26 L73.75,26 C72.2312169,26 71,27.1192881 71,28.5 C71,29.8807119 72.2312169,31 73.75,31 L79.25,31 C80.7687831,31 82,29.8807119 82,28.5 C82,27.1192881 80.7687831,26 79.25,26 Z" id="Shape"></path>
                <path d="M78.7707721,41.5001258 L73.2719241,37.5011312 C72.0065367,36.584569 70.2996068,36.9605553 69.4593895,38.3409201 C68.6191723,39.7212849 68.9638408,41.5833122 70.2292283,42.4998745 L75.7280762,46.498869 C76.9934637,47.415431 78.7003933,47.0394446 79.5406105,45.6590799 C80.3808276,44.2787152 80.0361593,42.4166882 78.7707721,41.5001258 Z" id="Shape"></path>
                <path d="M71.7078052,18.9800148 C72.2146623,18.9806951 72.7113511,18.8220932 73.1404901,18.5225319 L78.6921443,14.5444197 C79.5312116,13.9872658 80.0315249,12.9678232 79.9984565,11.8826669 C79.9653882,10.7975106 79.4041593,9.81797322 78.5330944,9.32510625 C77.6620295,8.83223929 76.6186588,8.90386025 75.8088658,9.51210775 L70.2572116,13.4902199 C69.2402382,14.200025 68.7710932,15.5733884 69.1082017,16.8538032 C69.4453101,18.134218 70.5067377,19.0104794 71.7078052,18.9999053 L71.7078052,18.9800148 Z" id="Shape"></path>
                <path d="M60.5,-7.10542736e-15 L53.1666667,-7.10542736e-15 C50.1291005,-7.10542736e-15 47.6666667,2.47797371 47.6666667,5.53470918 L47.6666667,5.70075046 L16.17,18.4490306 C15.3949614,16.2430271 13.325134,14.7658004 11,14.7592245 L5.5,14.7592245 C2.46243388,14.7592245 0,17.2371982 0,20.2939337 L0,38.7429643 C0,41.7996998 2.46243388,44.2776735 5.5,44.2776735 L11,44.2776735 C13.3183969,44.2633273 15.3788969,42.7875242 16.1516667,40.5878673 L19.5433333,42.0822388 C19.353089,42.4597508 19.2526678,42.8766028 19.25,43.2998748 C19.1454501,48.2372544 21.8800112,52.7924836 26.2716667,54.9965602 C27.889191,55.8052666 29.6721911,56.2222407 31.4783333,56.2141963 C34.7412311,56.175714 37.8800585,54.9502681 40.315,52.7642275 C40.6674735,52.450539 40.9328239,52.0500015 41.085,51.6019386 L47.7766667,54.5722325 C48.2994621,57.1495598 50.5526893,59.0005368 53.1666667,58.9999999 L60.5,58.9999999 C63.5375661,58.9999999 66,56.5220262 66,53.4652907 L66,5.49781112 C65.9798446,2.45549506 63.5233043,-6.76092725e-05 60.5,-7.10542736e-15 Z M11,38.7429643 L5.5,38.7429643 L5.5,20.2939337 L11,20.2939337 L11,38.7429643 Z M47.6666667,48.8899311 L16.5,34.9055659 L16.5,24.1866791 L47.6666667,11.475297 L47.6666667,48.8899311 Z M28.7283333,50.1075671 C26.5452786,49.0305706 25.0689578,46.8962745 24.8233333,44.4621638 L35.8233333,49.3142588 C33.7680761,50.8328422 31.0647194,51.1351108 28.7283333,50.1075671 L28.7283333,50.1075671 Z M60.5,53.5021888 L53.1666667,53.5021888 L53.1666667,5.53470918 L60.5,5.53470918 L60.5,53.5021888 Z" id="Shape"></path>
            </g>
        </g>
    </g>
</svg>