<?xml version="1.0" encoding="UTF-8"?>
<svg width="70px" height="64px" viewBox="0 0 70 64" version="1.1" xmlns="http://www.w3.org/2000/svg" xmlns:xlink="http://www.w3.org/1999/xlink">
    <title>Arrows</title>
    <g id="Page-1" stroke="none" stroke-width="1" fill="none" fill-rule="evenodd">
        <g id="4b_Menu" transform="translate(-63.000000, -1727.000000)" fill="#737880">
            <g id="Arrows" transform="translate(63.000000, 1727.000000)">
                <path d="M16.670483,34 C17.9487402,33.9988763 19.1006332,33.2287587 19.589649,32.0483423 C20.0786647,30.8679259 19.8086362,29.5093445 18.9053336,28.6053796 L10.5984361,20.3027217 L58.8374756,20.3027217 C60.5840896,20.3027217 62,18.887534 62,17.1418114 C62,15.3960888 60.5840896,13.980901 58.8374756,13.980901 L9.9026807,13.980901 L18.7999161,5.76253403 C19.8132347,5.0635508 20.3285677,3.84030894 20.1207058,2.62738612 C19.9128439,1.4144633 19.0195766,0.432370824 17.8312772,0.110299938 C16.6429777,-0.211770947 15.3756808,0.184732763 14.5832169,1.12653215 L0.878944296,13.7701736 C-0.292981432,15.4550471 -0.292981432,17.6906479 0.878944296,19.3755214 L14.5832169,33.0727996 C15.1391088,33.6309694 15.883455,33.9616211 16.670483,34 Z" id="Shape"></path>
                <path d="M69.9347833,47.5022776 C70.1433414,46.4952655 69.8449385,45.4499258 69.1363275,44.7051953 L56.0038311,31.0352438 C55.2322404,30.1838569 54.0590429,29.8199211 52.9416307,30.0853234 C51.8242184,30.3507257 50.9394827,31.2034516 50.6323537,32.3110507 C50.3252247,33.4186498 50.6443222,34.6057842 51.4652403,35.4096283 L59.4708101,43.8219061 L12.1517991,43.8219061 C10.4111085,43.8219061 9,45.2342705 9,46.9765103 C9,48.7187501 10.4111085,50.1311145 12.1517991,50.1311145 L59.870038,50.1311145 L51.0239885,58.2489625 C50.0141064,58.9465513 49.5005211,60.1673527 49.7076781,61.3778557 C49.9148351,62.5883586 50.8050729,63.5684918 51.9893424,63.8899201 C53.1736119,64.2113485 54.4366109,63.8156358 55.2263873,62.8757153 L68.8841835,50.2572986 C69.6776097,49.576067 70.0729361,48.5393902 69.9347833,47.5022776 L69.9347833,47.5022776 Z" id="Shape"></path>
            </g>
        </g>
    </g>
</svg>