<?xml version="1.0" encoding="UTF-8"?>
<svg width="84px" height="84px" viewBox="0 0 84 84" version="1.1" xmlns="http://www.w3.org/2000/svg" xmlns:xlink="http://www.w3.org/1999/xlink">
    <title>Group 2</title>
    <g id="Page-1" stroke="none" stroke-width="1" fill="none" fill-rule="evenodd">
        <g id="3_Profile-viewer" transform="translate(-594.000000, -364.000000)">
            <g id="Group-2" transform="translate(595.000000, 365.000000)">
                <g id="Notification" transform="translate(25.000000, 21.000000)" fill="#B9B9C0">
                    <path d="M31.8655537,29.3181257 C31.5117034,28.9905489 28.6377485,26.0509779 28.6377485,16.7753815 C28.5702606,13.6043922 27.3983351,10.5560577 25.3236384,8.15493881 C24.2101591,6.82540948 22.8316546,5.74209241 21.2759362,4.97399545 C21.2829411,4.89656921 21.2829411,4.81866973 21.2759362,4.7412435 C21.2759362,2.12272702 19.1507339,0 16.5291639,0 C13.907594,0 11.7823917,2.12272702 11.7823917,4.7412435 C11.7753867,4.81866973 11.7753867,4.89656921 11.7823917,4.97399545 C10.2266733,5.74209241 8.84816874,6.82540948 7.73468946,8.15493881 C5.65999274,10.5560577 4.4880673,13.6043922 4.42057936,16.7753815 C4.42057936,26.033737 1.55525499,28.9646875 1.20140469,29.2922644 C0.230420643,29.872444 -0.221303688,31.0377432 0.10533182,32.1197696 C0.449949964,33.2532723 1.50881222,34.0182906 2.69448034,33.9904057 L11.1351045,33.9904057 C10.6594624,34.4870164 10.6594624,35.2696061 11.1351045,35.7662169 C12.527415,37.1944163 14.4384725,38 16.4342285,38 C18.4299845,38 20.341042,37.1944163 21.7333525,35.7662169 C22.1768663,35.2768904 22.1768663,34.5314548 21.7333525,34.0421283 L30.2861731,34.0421283 C31.4718412,34.0700132 32.5307035,33.3049949 32.8753216,32.1714922 C33.2282904,31.1016701 32.8132085,29.9287463 31.8655537,29.3181257 L31.8655537,29.3181257 Z M16.5550554,2.55165105 C17.4585565,2.62861185 18.2406924,3.20952269 18.5745913,4.05160808 C17.2425169,3.77458811 15.867594,3.77458811 14.5355196,4.05160808 C14.8694184,3.20952269 15.6515543,2.62861185 16.5550554,2.55165105 L16.5550554,2.55165105 Z M16.5550554,6.43085027 C22.0267893,6.43085027 26.0486,11.9479336 26.0486,16.7753815 C26.0000788,19.6809196 26.3396606,22.5799474 27.0583679,25.3958243 L6.05174292,25.3958243 C6.77045029,22.5799474 7.11003208,19.6809196 7.06151085,16.7753815 C7.06151085,11.9479336 11.0833216,6.43085027 16.5550554,6.43085027 Z M16.494642,35.4300196 C15.1982586,35.4439101 13.9519998,34.9304271 13.0424439,34.0076465 L19.860535,34.0076465 C18.9725021,34.9098678 17.7613052,35.4217004 16.494642,35.4300196 L16.494642,35.4300196 Z M2.74626331,31.4301342 C3.82579394,30.502529 4.65142632,29.3159524 5.14554094,27.9819571 L27.9732004,27.9819571 C28.467315,29.3159524 29.2929474,30.502529 30.372478,31.4301342 L2.74626331,31.4301342 Z" id="Shape"></path>
                </g>
                <circle id="Oval" stroke="#979797" stroke-width="2" opacity="0.597121466" cx="41" cy="41" r="41"></circle>
            </g>
        </g>
    </g>
</svg>