<?xml version="1.0" encoding="UTF-8"?>
<svg width="66px" height="60px" viewBox="0 0 66 60" version="1.1" xmlns="http://www.w3.org/2000/svg" xmlns:xlink="http://www.w3.org/1999/xlink">
    <title>Слой_151</title>
    <g id="Page-1" stroke="none" stroke-width="1" fill="none" fill-rule="evenodd">
        <g id="3c_Profile-interest" transform="translate(-205.000000, -2567.000000)">
            <g id="Слой_151" transform="translate(205.000000, 2567.000000)">
                <path d="M52.5000004,4.49955137 C57.470563,4.49955137 61.5000001,8.52858691 61.5000001,13.4986541 L61.5000001,37.4962614 C61.5000001,42.4663286 57.470563,46.4953642 52.5000004,46.4953642 L25.1250013,46.4953642 L15.0000017,55.4944669 L15.0000017,46.4953642 L13.5000017,46.4953642 C8.52943911,46.4953642 4.50000199,42.4663286 4.50000199,37.4962614 L4.50000199,13.4986541 C4.50000199,8.52858691 8.52943911,4.49955137 13.5000017,4.49955137 L52.5000004,4.49955137 L52.5000004,4.49955137 Z M52.5000004,3.41026511e-13 L13.5000017,3.41026511e-13 C6.04415782,3.41026511e-13 2.13829519e-06,6.0435533 2.13829519e-06,13.4986541 L2.13829519e-06,37.4962614 C-0.00352415852,43.7984791 4.35475089,49.2644564 10.5000018,50.6649484 L10.5000018,55.4944669 C10.4976731,57.2699394 11.5397247,58.8807772 13.1601896,59.6066731 C14.7806546,60.332569 16.6765108,60.0377828 18.0000016,58.8541319 L26.8500013,50.9949155 L52.5000004,50.9949155 C59.9558443,50.9949155 66,44.9513622 66,37.4962614 L66,13.4986541 C66,6.0435533 59.9558443,0 52.5000004,0 L52.5000004,3.41026511e-13 Z" id="Shape" fill="#945B2C"></path>
                <circle id="Oval" fill="#945B2C" cx="33.5" cy="25.5" r="2.5"></circle>
                <circle id="Oval" fill="#945B2C" cx="48.5" cy="25.5" r="2.5"></circle>
                <circle id="Oval" fill="#935A2C" cx="18.5" cy="25.5" r="2.5"></circle>
            </g>
        </g>
    </g>
</svg>