<?xml version="1.0" encoding="UTF-8"?>
<svg width="71px" height="67px" viewBox="0 0 71 67" version="1.1" xmlns="http://www.w3.org/2000/svg" xmlns:xlink="http://www.w3.org/1999/xlink">
    <title>Home</title>
    <g id="Page-1" stroke="none" stroke-width="1" fill="none" fill-rule="evenodd">
        <g id="4b_Menu" transform="translate(-60.000000, -655.000000)" fill="#737880">
            <g id="Home" transform="translate(60.000000, 655.000000)">
                <path d="M69.2870734,27.3148754 L38.6512944,1.16322827 C36.8331576,-0.387742758 34.1668424,-0.387742758 32.3487056,1.16322827 L1.71292656,27.3148754 C0.191575595,28.6191608 -0.384033832,30.7259455 0.260887246,32.6294759 C0.905808325,34.5330063 2.6404867,35.847296 4.63680791,35.944919 L4.63680791,62.0965662 C4.63680791,64.8046579 6.81858503,67 9.5099435,67 L61.4900565,67 C64.181415,67 66.3631921,64.8046579 66.3631921,62.0965662 L66.3631921,35.9612638 C68.3595133,35.8636407 70.0941917,34.549351 70.7391128,32.6458206 C71.3840338,30.7422903 70.8084244,28.6355056 69.2870734,27.3312202 L69.2870734,27.3148754 Z M33.8756215,62.1129109 L30.6268644,62.1129109 L30.6268644,47.4026094 L40.3731356,47.4026094 L40.3731356,62.1129109 L33.8756215,62.1129109 Z M61.4900565,31.0578299 L61.4900565,62.1129109 L45.2462712,62.1129109 L45.2462712,47.4026094 C45.2462712,44.6945177 43.0644941,42.4991756 40.3731356,42.4991756 L30.6268644,42.4991756 C27.9355059,42.4991756 25.7537288,44.6945177 25.7537288,47.4026094 L25.7537288,62.1129109 L9.5099435,62.1129109 L9.5099435,31.0578299 L4.86422091,31.0578299 L35.5,4.90618277 L66.1357791,31.0578299 L61.4900565,31.0578299 Z" id="Shape"></path>
            </g>
        </g>
    </g>
</svg>