<?xml version="1.0" encoding="UTF-8"?>
<svg width="52px" height="65px" viewBox="0 0 52 65" version="1.1" xmlns="http://www.w3.org/2000/svg" xmlns:xlink="http://www.w3.org/1999/xlink">
    <title>Bookmark</title>
    <g id="Page-1" stroke="none" stroke-width="1" fill="none" fill-rule="evenodd">
        <g id="4b_Menu" transform="translate(-70.000000, -999.000000)" fill="#737880">
            <g id="Bookmark" transform="translate(70.000000, 999.000000)">
                <path d="M47.4117647,4.64313921 L47.4117647,60.3608097 L26,38.6928267 L4.58823529,60.3608097 L4.58823529,4.64313921 L47.4117647,4.64313921 L47.4117647,4.64313921 Z M47.4117647,0 L4.58823529,0 C2.05422291,0 0,2.07880423 0,4.64313921 L0,60.3608097 C0.00163117323,62.2375149 1.11949914,63.9286954 2.83293851,64.6466561 C4.54637787,65.3646168 6.51843358,64.9681676 7.83058824,63.6419614 L26,44.883679 L44.1694118,63.6419614 C45.4815664,64.9681676 47.4536221,65.3646168 49.1670615,64.6466561 C50.8805009,63.9286954 51.9983688,62.2375149 52,60.3608097 L52,4.64313921 C52,2.07880423 49.9457771,0 47.4117647,0 Z" id="Shape"></path>
            </g>
        </g>
    </g>
</svg>