<?xml version="1.0" encoding="UTF-8"?>
<svg width="66px" height="62px" viewBox="0 0 66 62" version="1.1" xmlns="http://www.w3.org/2000/svg" xmlns:xlink="http://www.w3.org/1999/xlink">
    <title>User</title>
    <g id="Page-1" stroke="none" stroke-width="1" fill="none" fill-rule="evenodd">
        <g id="4b_Menu" transform="translate(-64.000000, -1191.000000)" fill="#737880">
            <g id="User" transform="translate(64.000000, 1191.000000)">
                <path d="M33.5,39 C42.5915,39 50,30.2575 50,19.5 C50,8.7425 42.5915,0 33.5,0 C24.4085,0 17,8.7425 17,19.5 C17,30.2575 24.425,39 33.5,39 Z M33.5,4.875 C39.8855,4.875 45.05,11.375 45.05,19.5 C45.05,27.625 39.8855,34.125 33.5,34.125 C27.1145,34.125 21.95,27.625 21.95,19.5 C21.95,11.375 27.1145,4.875 33.5,4.875 Z" id="Shape"></path>
                <path d="M47.7292683,37.0126589 C46.3957028,36.8745657 45.2065275,37.8820865 45.073171,39.2630198 C44.9398144,40.6439531 45.9127759,41.8753675 47.2463415,42.0134609 C54.7349617,42.9246766 60.5367068,49.2265867 61.0580488,57.0158672 L4.94195122,57.0158672 C5.51257431,49.2491949 11.2891995,42.9745703 18.7536585,42.0134609 C20.0872242,41.8753676 21.0601858,40.6439532 20.9268293,39.2630198 C20.7934727,37.8820864 19.6042973,36.8745655 18.2707317,37.0126589 C18.0936585,37.0126589 0,39.1463344 0,59.499599 C0,60.8805323 1.08106853,62 2.41463415,62 L63.5853659,62 C64.9189315,62 66,60.8805323 66,59.499599 C66,39.1463344 47.9063415,37.0126589 47.7292683,37.0126589 Z" id="Shape"></path>
            </g>
        </g>
    </g>
</svg>