<?xml version="1.0" encoding="UTF-8"?>
<svg width="33px" height="28px" viewBox="0 0 33 28" version="1.1" xmlns="http://www.w3.org/2000/svg" xmlns:xlink="http://www.w3.org/1999/xlink">
    <title>Folder</title>
    <g id="Page-1" stroke="none" stroke-width="1" fill="none" fill-rule="evenodd">
        <g id="3a_Profile-Viewer" transform="translate(-72.000000, -939.000000)" fill="#657685">
            <g id="Folder" transform="translate(72.000000, 939.000000)">
                <path d="M12.9134212,2.62500009 C13.6273496,2.62998574 14.3033028,2.94973881 14.763158,3.50000008 L16.5000001,6.12500008 C16.9109078,6.67474385 17.5538093,6.99862982 18.2368422,7.00000007 L28.6578948,7.00000007 C29.6171262,7.00000007 30.3947369,7.78350176 30.3947369,8.75000007 L30.3947369,23.625 C30.3947369,24.5914983 29.6171262,25.375 28.6578948,25.375 L4.34210549,25.375 C3.38287409,25.375 2.6052634,24.5914983 2.6052634,23.625 L2.6052634,7.48125007 C2.61106685,7.17229557 2.69795883,6.87039815 2.85710551,6.60625007 L4.70684233,3.50000008 C5.01365443,2.96447273 5.57818059,2.63183947 6.19184232,2.62500009 L12.9134212,2.62500009 L12.9134212,2.62500009 Z M12.9134212,9.66957972e-08 L6.19184232,9.66957972e-08 C4.66540254,-0.00032258061 3.25090607,0.806965538 2.46631604,2.12625009 L0.616579209,5.25000008 C0.212828548,5.92953394 -0.000275014822,6.70675256 2.66362395e-07,7.49875007 L2.66362395e-07,23.625 C2.66362395e-07,26.0412458 1.94402699,28 4.34210549,28 L28.6578948,28 C31.0559733,28 33,26.0412458 33,23.625 L33,8.75000007 C33,6.33375429 31.0559733,4.37500008 28.6578948,4.37500008 L18.4626317,4.37500008 L16.9342107,2.08250009 C16.0032853,0.778427209 14.5077038,0.00381600444 12.9134212,9.66959961e-08 L12.9134212,9.66957972e-08 Z" id="Shape"></path>
            </g>
        </g>
    </g>
</svg>