<?xml version="1.0" encoding="UTF-8"?>
<svg width="58px" height="61px" viewBox="0 0 58 61" version="1.1" xmlns="http://www.w3.org/2000/svg" xmlns:xlink="http://www.w3.org/1999/xlink">
    <title>Server</title>
    <g id="Page-1" stroke="none" stroke-width="1" fill="none" fill-rule="evenodd">
        <g id="4b_Menu" transform="translate(-67.000000, -1131.000000)">
            <g id="Server" transform="translate(67.000000, 1131.000000)">
                <circle id="Oval" fill="#000000" cx="18" cy="10" r="2"></circle>
                <path d="M13.3846154,19.3414634 L53.5384615,19.3414634 C56.0025012,19.3414634 58,17.3431246 58,14.8780488 L58,4.46341463 C58,1.9983388 56.0025012,0 53.5384615,0 L13.3846154,0 C10.9205757,0 8.92307692,1.9983388 8.92307692,4.46341463 L8.92307692,7.43902439 L2.23076923,7.43902439 C0.998749404,7.43902439 0,8.43819379 0,9.67073171 L0,52.8170732 C-8.45363665e-14,53.4089588 0.235026798,53.9766022 0.65337718,54.3951285 C1.07172756,54.8136549 1.63913245,55.0487805 2.23076923,55.0487805 L8.92307692,55.0487805 L8.92307692,56.5365854 C8.92307692,59.0016612 10.9205757,61 13.3846154,61 L53.5384615,61 C56.0025012,61 58,59.0016612 58,56.5365854 L58,46.1219512 C58,43.6568754 56.0025012,41.6585366 53.5384615,41.6585366 L13.3846154,41.6585366 C10.9205757,41.6585366 8.92307692,43.6568754 8.92307692,46.1219512 L8.92307692,50.5853659 L4.46153846,50.5853659 L4.46153846,32.7317073 L8.92307692,32.7317073 L8.92307692,35.7073171 C8.92307692,38.1723929 10.9205757,40.1707317 13.3846154,40.1707317 L53.5384615,40.1707317 C56.0025012,40.1707317 58,38.1723929 58,35.7073171 L58,25.2926829 C58,22.8276071 56.0025012,20.8292683 53.5384615,20.8292683 L13.3846154,20.8292683 C10.9205757,20.8292683 8.92307692,22.8276071 8.92307692,25.2926829 L8.92307692,28.2682927 L4.46153846,28.2682927 L4.46153846,11.902439 L8.92307692,11.902439 L8.92307692,14.8780488 C8.92307692,17.3431246 10.9205757,19.3414634 13.3846154,19.3414634 L13.3846154,19.3414634 Z M13.3846154,4.46341463 L53.5384615,4.46341463 L53.5384615,14.8780488 L13.3846154,14.8780488 L13.3846154,4.46341463 Z M13.3846154,46.1219512 L53.5384615,46.1219512 L53.5384615,56.5365854 L13.3846154,56.5365854 L13.3846154,46.1219512 Z M13.3846154,25.2926829 L53.5384615,25.2926829 L53.5384615,35.7073171 L13.3846154,35.7073171 L13.3846154,25.2926829 Z" id="Shape" fill="#737880"></path>
                <circle id="Oval" fill="#000000" cx="18" cy="31" r="2"></circle>
                <circle id="Oval" fill="#000000" cx="18" cy="52" r="2"></circle>
            </g>
        </g>
    </g>
</svg>