<?xml version="1.0" encoding="UTF-8"?>
<svg width="43px" height="49px" viewBox="0 0 43 49" version="1.1" xmlns="http://www.w3.org/2000/svg" xmlns:xlink="http://www.w3.org/1999/xlink">
    <title>Image</title>
    <g id="Page-1" stroke="none" stroke-width="1" fill="none" fill-rule="evenodd">
        <g id="4a_Home" transform="translate(-201.000000, -483.000000)" fill="#7F808B">
            <g id="Image" transform="translate(201.000000, 483.000000)">
                <path d="M41.9065701,11.0627638 L32.2271249,1.58039483 C31.6193625,0.614531324 30.5543102,0.0191162517 29.4001841,0 L3.39232893,0 C1.5187974,0 0,1.49485957 0,3.33886231 L0,45.6311182 C0,47.4751209 1.5187974,48.9699805 3.39232893,48.9699805 L39.5771709,48.9699805 C40.5116358,49.1021513 41.4547442,48.7931651 42.1222986,48.136132 C42.7898529,47.479099 43.1037871,46.550855 42.9694998,45.6311182 L42.9694998,14.4684033 C43.0566666,13.2427203 42.6778243,12.028905 41.9065701,11.0627638 L41.9065701,11.0627638 Z M32.792513,6.81127911 L37.1799251,11.129541 L32.792513,11.129541 L32.792513,6.81127911 Z M29.2871064,3.33886231 L29.2871064,3.40563955 L29.354953,3.4724168 L29.354953,14.4684033 L39.5319398,14.4684033 L39.5319398,26.3770122 L33.5840564,23.0381499 C32.8905498,22.6481628 32.0145754,22.7872221 31.4808125,23.3720362 L22.0614458,33.6112139 L14.1460116,30.7175332 C13.5242758,30.4929335 12.8265864,30.6450491 12.3593851,31.1070672 L3.38102117,39.9439227 L3.38102117,3.33886231 L29.2871064,3.33886231 Z M3.39232893,45.6311182 L3.39232893,44.6294595 L3.46017551,44.6294595 L13.9990107,34.2567273 L22.0162148,37.172667 C22.6653529,37.4081215 23.3947262,37.2319552 23.8593802,36.7274854 L33.1317459,26.6441212 L39.5771709,30.2723516 L39.5771709,45.6311182 L3.39232893,45.6311182 Z" id="Shape"></path>
                <path d="M14,24 C17.3137085,24 20,21.3137085 20,18 C20,14.6862915 17.3137085,12 14,12 C10.6862915,12 8,14.6862915 8,18 C8,21.3137085 10.6862915,24 14,24 L14,24 Z M14,15.6 C15.3254834,15.6 16.4,16.6745166 16.4,18 C16.4,19.3254834 15.3254834,20.4 14,20.4 C12.6745166,20.4 11.6,19.3254834 11.6,18 C11.6,16.6745166 12.6745166,15.6 14,15.6 Z" id="Shape"></path>
            </g>
        </g>
    </g>
</svg>