<?xml version="1.0" encoding="UTF-8"?>
<svg width="40px" height="47px" viewBox="0 0 40 47" version="1.1" xmlns="http://www.w3.org/2000/svg" xmlns:xlink="http://www.w3.org/1999/xlink">
    <title>Fill 1</title>
    <g id="Page-1" stroke="none" stroke-width="1" fill="none" fill-rule="evenodd">
        <g id="2a_Login" transform="translate(-158.000000, -1327.000000)" fill="#000000">
            <path d="M169.111111,1342.55556 L186.888889,1342.55556 L186.888889,1340.33333 C186.888889,1335.42444 182.908889,1331.44444 178,1331.44444 C173.091111,1331.44444 169.111111,1335.42444 169.111111,1340.33333 L169.111111,1342.55556 Z M175.777778,1359.73778 C173.651111,1358.51111 172.924444,1355.79111 174.151111,1353.66667 C175.377778,1351.54 178.095556,1350.81333 180.222222,1352.04 C182.348889,1353.26667 183.075556,1355.98444 181.848889,1358.11111 C181.46,1358.78667 180.897778,1359.34889 180.222222,1359.73778 L180.222222,1364.77778 L175.777778,1364.77778 L175.777778,1359.73778 Z M162.444444,1369.22222 L193.555556,1369.22222 L193.555556,1347 L162.444444,1347 L162.444444,1369.22222 Z M164.666667,1342.55556 L164.666667,1340.33333 C164.666667,1332.97111 170.637778,1327 178,1327 C185.362222,1327 191.333333,1332.97111 191.333333,1340.33333 L191.333333,1342.55556 L195.777778,1342.55556 C197.006667,1342.55556 198,1343.55111 198,1344.77778 L198,1371.44444 C198,1372.67333 197.006667,1373.66667 195.777778,1373.66667 L160.222222,1373.66667 C158.995556,1373.66667 158,1372.67333 158,1371.44444 L158,1344.77778 C158,1343.55111 158.995556,1342.55556 160.222222,1342.55556 L164.666667,1342.55556 Z" id="Fill-1"></path>
        </g>
    </g>
</svg>