<?xml version="1.0" encoding="UTF-8"?>
<svg width="69px" height="69px" viewBox="0 0 69 69" version="1.1" xmlns="http://www.w3.org/2000/svg" xmlns:xlink="http://www.w3.org/1999/xlink">
    <title>Group 2</title>
    <g id="Page-1" stroke="none" stroke-width="1" fill="none" fill-rule="evenodd">
        <g id="3b_Media" transform="translate(-726.000000, -472.000000)">
            <g id="Group-2" transform="translate(727.000000, 473.000000)">
                <g id="Dialog" opacity="0.596842448" transform="translate(16.000000, 19.000000)" fill="#888994">
                    <path d="M32.6136364,9.22915021 L25.4545455,9.22915021 L25.4545455,2.30728755 C25.4545455,1.03300782 24.3861341,0 23.0681818,0 L2.38636364,0 C1.06841139,0 0,1.03300782 0,2.30728755 L0,14.6128212 C0,15.8871009 1.06841139,16.9201087 2.38636364,16.9201087 L2.83977273,16.9201087 L2.56136364,17.604604 C2.18538939,18.5109087 2.44020999,19.5479105 3.19761754,20.1938629 C3.95502509,20.8398152 5.05098657,20.954823 5.93409091,20.4810225 L9.54545455,18.542901 L9.54545455,23.8496623 C9.54545455,25.1239421 10.6138659,26.1569499 11.9318182,26.1569499 L22.4477273,26.1569499 L29.0659091,29.7101727 C29.9490134,30.1839732 31.0449749,30.0689654 31.8023825,29.4230131 C32.55979,28.7770607 32.8146106,27.7400589 32.4386364,26.8337542 L32.1602273,26.1492589 L32.6136364,26.1492589 C33.9315886,26.1492589 35,25.1162511 35,23.8419714 L35,11.5364378 C35,10.262158 33.9315886,9.22915021 32.6136364,9.22915021 Z M9.54545455,11.5364378 L9.54545455,15.8972112 L4.77272727,18.4583004 L6.36363636,14.6128212 L2.38636364,14.6128212 L2.38636364,2.30728755 L23.0681818,2.30728755 L23.0681818,9.22915021 L11.9318182,9.22915021 C10.6138659,9.22915021 9.54545455,10.262158 9.54545455,11.5364378 Z M32.6136364,23.8419714 L28.6363636,23.8419714 L30.2272727,27.6874506 L23.0681818,23.8419714 L11.9318182,23.8419714 L11.9318182,11.5364378 L32.6136364,11.5364378 L32.6136364,23.8419714 Z" id="Shape"></path>
                    <path d="M15.2142857,16 L29.7857143,16 C30.4563458,16 31,15.5522847 31,15 C31,14.4477153 30.4563458,14 29.7857143,14 L15.2142857,14 C14.5436542,14 14,14.4477153 14,15 C14,15.5522847 14.5436542,16 15.2142857,16 L15.2142857,16 Z" id="Shape"></path>
                    <path d="M15.2142857,21 L29.7857143,21 C30.4563458,21 31,20.5522847 31,20 C31,19.4477153 30.4563458,19 29.7857143,19 L15.2142857,19 C14.5436542,19 14,19.4477153 14,20 C14,20.5522847 14.5436542,21 15.2142857,21 L15.2142857,21 Z" id="Shape"></path>
                </g>
                <circle id="Oval" stroke="#657685" stroke-width="2" opacity="0.597121466" cx="33.5" cy="33.5" r="33.5"></circle>
            </g>
        </g>
    </g>
</svg>