<?xml version="1.0" encoding="UTF-8"?>
<svg width="40px" height="43px" viewBox="0 0 40 43" version="1.1" xmlns="http://www.w3.org/2000/svg" xmlns:xlink="http://www.w3.org/1999/xlink">
    <title>Fill 1 Copy</title>
    <g id="Page-1" stroke="none" stroke-width="1" fill="none" fill-rule="evenodd">
        <g id="4a_Home" transform="translate(-917.000000, -1554.000000)" fill="#7F808B">
            <path d="M948.579709,1591.90021 C950.903919,1591.90021 952.790235,1590.01389 952.790235,1587.68968 C952.790235,1585.36547 950.903919,1583.47916 948.579709,1583.47916 C946.255498,1583.47916 944.369182,1585.36547 944.369182,1587.68968 C944.369182,1590.01389 946.255498,1591.90021 948.579709,1591.90021 L948.579709,1591.90021 Z M948.579709,1566.63705 C950.903919,1566.63705 952.790235,1564.75074 952.790235,1562.42653 C952.790235,1560.10232 950.903919,1558.216 948.579709,1558.216 C946.255498,1558.216 944.369182,1560.10232 944.369182,1562.42653 C944.369182,1564.75074 946.255498,1566.63705 948.579709,1566.63705 L948.579709,1566.63705 Z M925.421814,1579.26863 C927.746024,1579.26863 929.63234,1577.38232 929.63234,1575.05811 C929.63234,1572.73389 927.746024,1570.84758 925.421814,1570.84758 C923.097603,1570.84758 921.211288,1572.73389 921.211288,1575.05811 C921.211288,1577.38232 923.097603,1579.26863 925.421814,1579.26863 L925.421814,1579.26863 Z M940.411288,1585.63284 L931.571288,1580.81179 C928.394445,1584.20968 923.066024,1584.38653 919.66813,1581.20968 C916.27234,1578.03074 916.093393,1572.70232 919.27234,1569.30653 C922.449182,1565.91074 927.777603,1565.73179 931.173393,1568.90863 C931.310235,1569.03705 931.442867,1569.16968 931.571288,1569.30653 L940.413393,1564.48547 C939.274445,1559.976 942.007077,1555.39705 946.516551,1554.25811 C951.023919,1553.11916 955.602867,1555.85179 956.741814,1560.36126 C957.880761,1564.87074 955.150235,1569.44758 950.640761,1570.58653 C947.670235,1571.33811 944.527077,1570.416 942.43234,1568.18021 L933.590235,1573.00126 C933.929182,1574.35284 933.929182,1575.76337 933.590235,1577.11495 L942.430235,1581.936 C945.609182,1578.54021 950.939709,1578.36758 954.331288,1581.54653 C957.727077,1584.72758 957.901814,1590.056 954.720761,1593.44968 C951.541814,1596.84547 946.213393,1597.02021 942.819709,1593.83916 C940.581814,1591.74442 939.661814,1588.60126 940.411288,1585.63074 L940.411288,1585.63284 Z" id="Fill-1-Copy"></path>
        </g>
    </g>
</svg>