<?xml version="1.0" encoding="UTF-8"?>
<svg width="40px" height="46px" viewBox="0 0 40 46" version="1.1" xmlns="http://www.w3.org/2000/svg" xmlns:xlink="http://www.w3.org/1999/xlink">
    <title>Fill 1</title>
    <g id="Page-1" stroke="none" stroke-width="1" fill="none" fill-rule="evenodd">
        <g id="2b_Sign-Up-First" transform="translate(-157.000000, -1123.000000)" fill="#000000">
            <path d="M176.998838,1127.64765 C173.308604,1127.64765 170.255098,1130.52455 170.038982,1134.21013 L170.027362,1134.61913 L170.027362,1141.5906 C170.025039,1145.44118 173.141289,1148.5644 176.991867,1148.56905 C180.689072,1148.57369 183.744902,1145.68983 183.958694,1141.99959 L183.970313,1141.5906 L183.970313,1134.61913 C183.970313,1130.76855 180.849416,1127.64765 176.998838,1127.64765 L176.998838,1127.64765 Z M176.998838,1123 C183.417243,1123 188.617963,1128.20304 188.617963,1134.61913 L188.617963,1141.5906 C188.617963,1147.81148 183.71934,1152.92854 177.503108,1153.19811 L176.998838,1153.20973 C170.582757,1153.20973 165.379713,1148.00668 165.379713,1141.5906 L165.379713,1134.61913 C165.379713,1128.39825 170.278336,1123.28118 176.494568,1123.01162 L176.998838,1123 Z M176.998838,1157.85738 C185.508685,1157.85738 192.951897,1161.5174 197,1166.97839 L192.719514,1169.00244 C189.42433,1165.09841 183.614768,1162.50503 176.998838,1162.50503 C170.382908,1162.50503 164.573346,1165.09841 161.278162,1169.00244 L157,1166.97606 C161.048103,1161.51508 168.488991,1157.85738 176.998838,1157.85738 L176.998838,1157.85738 Z" id="Fill-1"></path>
        </g>
    </g>
</svg>