<?xml version="1.0" encoding="UTF-8"?>
<svg width="66px" height="53px" viewBox="0 0 66 53" version="1.1" xmlns="http://www.w3.org/2000/svg" xmlns:xlink="http://www.w3.org/1999/xlink">
    <title>Utube</title>
    <g id="Page-1" stroke="none" stroke-width="1" fill="none" fill-rule="evenodd">
        <g id="4a_Home" transform="translate(-290.000000, -479.000000)" fill="#7F808B">
            <g id="Utube" transform="translate(290.000000, 479.000000)">
                <path d="M50.1794811,4.67647059 C56.3052274,4.67647059 61.2711259,9.6037086 61.2711259,15.6817647 L61.2711259,37.3338235 C61.2711259,43.4118796 56.3052274,48.3391176 50.1794811,48.3391176 L15.8048084,48.3391176 C9.67906208,48.3391176 4.71316353,43.4118796 4.71316353,37.3338235 L4.71316353,15.6817647 C4.71316353,9.6037086 9.67906208,4.67647059 15.8048084,4.67647059 L50.1951916,4.67647059 L50.1794811,4.67647059 Z M50.1951916,0 L15.8048084,0 C7.07964344,0.00859279815 0.00866021974,7.02452696 0,15.6817647 L0,37.3338235 C0.0173125921,45.9849731 7.08576651,52.991426 15.8048084,53 L50.1951916,53 C58.9203566,52.9914072 65.9913398,45.975473 66,37.3182353 L66,15.6661765 C65.982671,7.00894549 58.9046564,-1.70746315e-05 50.1794811,0 L50.1951916,0 Z" id="Shape"></path>
                <path d="M28.7137428,18.701359 L41.2837236,26.5109255 L28.7137428,34.320492 L28.7137428,18.701359 L28.7137428,18.701359 Z M28.7137428,14.0156191 C26.1104145,14.0156191 24,16.1134963 24,18.701359 L24,34.320492 C24.0022783,36.0227608 24.9330836,37.5899031 26.4314122,38.4141179 C27.9297409,39.2383327 29.7598794,39.1899566 31.2120265,38.2877518 L43.7820073,30.4781853 C45.1616618,29.6222295 46,28.1197663 46,26.5031159 C46,24.8864656 45.1616618,23.3840024 43.7820073,22.5280466 L31.2120265,14.7184801 C30.4635206,14.2508401 29.5978053,14.0018694 28.7137428,14 L28.7137428,14.0156191 Z" id="Shape"></path>
            </g>
        </g>
    </g>
</svg>